<?xml version="1.0" encoding="iso-8859-1"?>
<!-- Generator: Adobe Illustrator 21.0.0, SVG Export Plug-In . SVG Version: 6.00 Build 0)  -->
<svg version="1.1" id="Layer_1" xmlns="http://www.w3.org/2000/svg" xmlns:xlink="http://www.w3.org/1999/xlink" x="0px" y="0px"
	 viewBox="0 0 100.354 100.352" style="enable-background:new 0 0 100.354 100.352;" xml:space="preserve">
<path d="M69.181,72.284c0.001-0.414-0.168-0.81-0.469-1.094L54.591,57.837l0.189-44.994c0.078-0.181,0.122-0.38,0.123-0.59
	c0.01-2.837-2.604-5.158-5.828-5.173c-0.008,0-0.016,0-0.024,0c-3.213,0-5.834,2.294-5.848,5.124
	c-0.001,0.199,0.038,0.394,0.111,0.575l-0.189,45.013L28.888,71.024c-0.304,0.282-0.477,0.677-0.479,1.092l-0.037,8.005l0,0l0,0
	l-0.05,11.757c-0.003,0.828,0.665,1.503,1.494,1.506c0.002,0,0.004,0,0.006,0c0.826,0,1.497-0.667,1.5-1.494l0.044-10.257
	l4.561,0.02l-0.041,10.263c-0.003,0.828,0.666,1.502,1.494,1.506c0.002,0,0.004,0,0.006,0c0.826,0,1.497-0.667,1.5-1.494
	l0.041-10.262l4.55,0.02l-0.044,10.258c-0.003,0.828,0.665,1.503,1.494,1.506c0.002,0,0.004,0,0.006,0
	c0.826,0,1.497-0.667,1.5-1.494l0.044-10.258l4.557,0.02L50.99,91.975c-0.003,0.828,0.665,1.503,1.494,1.506
	c0.002,0,0.004,0,0.006,0c0.826,0,1.497-0.667,1.5-1.494l0.044-10.256l4.559,0.02l-0.055,10.252
	c-0.004,0.829,0.664,1.504,1.492,1.508c0.003,0,0.006,0,0.008,0c0.825,0,1.496-0.666,1.5-1.492l0.055-10.255l4.557,0.02
	l-0.052,10.253c-0.004,0.829,0.664,1.503,1.492,1.508c0.003,0,0.005,0,0.008,0c0.825,0,1.496-0.667,1.5-1.492l0.06-11.754
	c0-0.001,0-0.001,0-0.002s0-0.001,0-0.002L69.181,72.284z M31.405,72.778l14.237-13.232c0.004-0.004,0.005-0.009,0.009-0.012
	c0.136-0.129,0.247-0.284,0.328-0.456c0.004-0.008,0.009-0.016,0.013-0.024c0.071-0.16,0.111-0.336,0.121-0.521
	c0.001-0.016,0.004-0.03,0.005-0.046c0-0.011,0.003-0.022,0.003-0.033l0.194-46.236c0-0.141-0.019-0.28-0.056-0.413
	c0.268-0.97,1.438-1.724,2.789-1.724c0.004,0,0.009,0,0.014,0c1.375,0.006,2.523,0.751,2.785,1.732
	c-0.042,0.136-0.064,0.28-0.064,0.429l-0.194,46.232c0,0.011,0.003,0.022,0.003,0.033c0,0.016,0.004,0.031,0.005,0.047
	c0.009,0.184,0.047,0.36,0.117,0.521c0.004,0.008,0.009,0.016,0.013,0.024c0.079,0.173,0.188,0.329,0.324,0.459
	c0.004,0.003,0.005,0.008,0.008,0.012l14.122,13.353l-0.017,5.863l-13.578-0.059c-0.013,0-0.025-0.004-0.038-0.004
	c-0.002,0-0.004,0-0.006,0c-0.012,0-0.024,0.003-0.036,0.004l-7.475-0.033c-0.013,0-0.026-0.004-0.039-0.004
	c-0.002,0-0.004,0-0.006,0c-0.013,0-0.025,0.003-0.037,0.004l-13.567-0.059L31.405,72.778z"/>
</svg>
