<?xml version="1.0" encoding="iso-8859-1"?>
<!-- Generator: Adobe Illustrator 21.0.0, SVG Export Plug-In . SVG Version: 6.00 Build 0)  -->
<svg version="1.1" id="Layer_1" xmlns="http://www.w3.org/2000/svg" xmlns:xlink="http://www.w3.org/1999/xlink" x="0px" y="0px"
	 viewBox="0 0 100.354 100.352" style="enable-background:new 0 0 100.354 100.352;" xml:space="preserve">
<g>
	<path d="M72.631,70.586c-2.679-15.933-20.514-59.6-21.272-61.451c-0.231-0.563-0.779-0.932-1.388-0.932s-1.158,0.368-1.388,0.932
		c-0.758,1.851-18.586,45.518-21.265,61.451c-0.858,5.089,0.645,10.229,4.23,14.47c4.411,5.217,11.47,8.458,18.422,8.458
		c6.955,0,14.017-3.243,18.43-8.462C71.987,80.81,73.489,75.673,72.631,70.586z M66.11,83.115
		c-3.859,4.564-10.043,7.399-16.139,7.399c-6.093,0-12.274-2.834-16.131-7.396c-3.007-3.556-4.272-7.83-3.563-12.035
		c0,0,0,0,0-0.001c2.196-13.058,15.353-46.534,19.695-57.373c4.344,10.839,17.505,44.313,19.702,57.374
		C70.382,75.286,69.117,79.559,66.11,83.115z"/>
	<path d="M46.702,80.345c-4.331-3.073-6.509-8.024-5.682-12.923c0.437-2.606,1.34-6.198,2.686-10.676
		c0.238-0.793-0.211-1.63-1.005-1.868c-0.792-0.24-1.629,0.211-1.868,1.005c-1.382,4.598-2.314,8.313-2.771,11.042
		c-1.02,6.042,1.626,12.122,6.904,15.867c0.264,0.187,0.567,0.277,0.867,0.277c0.47,0,0.932-0.22,1.225-0.632
		C47.537,81.761,47.377,80.824,46.702,80.345z"/>
</g>
</svg>
