<?xml version="1.0" encoding="iso-8859-1"?>
<!-- Generator: Adobe Illustrator 21.0.0, SVG Export Plug-In . SVG Version: 6.00 Build 0)  -->
<svg version="1.1" id="Layer_1" xmlns="http://www.w3.org/2000/svg" xmlns:xlink="http://www.w3.org/1999/xlink" x="0px" y="0px"
	 viewBox="0 0 100.353 100.352" style="enable-background:new 0 0 100.353 100.352;" xml:space="preserve">
<path d="M60.914,47.388h-1.116V38.7V11.826c0-0.131-0.018-0.259-0.052-0.381c-0.263-3.953-4.661-6.997-10.229-6.997
	c-5.744,0-10.244,3.238-10.244,7.377v26.874v8.688h-1.114c-6.308,0-11.44,5.127-11.44,11.43v22.759
	c0,6.305,5.132,11.435,11.44,11.435h22.755c6.307,0,11.438-5.129,11.438-11.435V58.817C72.353,52.516,67.221,47.388,60.914,47.388z
	 M69.353,58.818v6.055H51.034V50.388h7.264h2.616C65.567,50.388,69.353,54.17,69.353,58.818z M42.274,38.701V11.822
	c0-2.37,3.317-4.372,7.244-4.372c3.925,0,7.241,2.002,7.241,4.372c0,0.114,0.014,0.226,0.04,0.333v26.546v8.688H42.275
	L42.274,38.701L42.274,38.701z M38.159,50.388h2.614h7.26v14.485H29.719v-6.055C29.719,54.17,33.506,50.388,38.159,50.388z
	 M60.914,90.012H38.159c-4.654,0-8.44-3.784-8.44-8.435V67.872h18.314v5.537l-4.978,9.65c-0.24,0.465-0.22,1.021,0.052,1.468
	s0.757,0.719,1.281,0.719h10.294c0.523,0,1.009-0.273,1.281-0.72s0.292-1.003,0.052-1.468l-4.983-9.65v-5.536h18.319v13.705
	C69.353,86.228,65.567,90.012,60.914,90.012z M49.534,77.044l2.687,5.203h-5.37L49.534,77.044z"/>
</svg>
