<?xml version="1.0" encoding="iso-8859-1"?>
<!-- Generator: Adobe Illustrator 21.0.0, SVG Export Plug-In . SVG Version: 6.00 Build 0)  -->
<svg version="1.1" id="Layer_1" xmlns="http://www.w3.org/2000/svg" xmlns:xlink="http://www.w3.org/1999/xlink" x="0px" y="0px"
	 viewBox="0 0 100.353 100.353" style="enable-background:new 0 0 100.353 100.353;" xml:space="preserve">
<g>
	<path d="M43.952,46.643h-0.064V35.911c0-0.829-0.671-1.5-1.5-1.5h-1.915V19.986c0-0.397-0.158-0.779-0.439-1.061L28.371,7.256
		c-0.429-0.429-1.073-0.559-1.635-0.325C26.175,7.163,25.81,7.71,25.81,8.317v26.094h-1.914c-0.829,0-1.5,0.671-1.5,1.5v10.732
		h-0.068c-0.829,0-1.5,0.671-1.5,1.5v44.76c0,0.829,0.671,1.5,1.5,1.5h21.625c0.829,0,1.5-0.671,1.5-1.5v-44.76
		C45.452,47.314,44.781,46.643,43.952,46.643z M28.81,11.94l8.663,8.667v13.804H28.81V11.94z M25.396,37.411h15.492v9.232H25.396
		V37.411z M42.452,91.402H23.827v-41.76h0.068h18.492h0.064v41.76H42.452z"/>
	<path d="M75.367,49.711v-9.926c0-0.829-0.671-1.5-1.5-1.5h-5.773V26.549h2.92c0.829,0,1.5-0.671,1.5-1.5s-0.671-1.5-1.5-1.5h-2.92
		v-3.507h2.92c0.829,0,1.5-0.671,1.5-1.5s-0.671-1.5-1.5-1.5h-2.92v-3.509h2.92c0.829,0,1.5-0.671,1.5-1.5s-0.671-1.5-1.5-1.5h-2.92
		V8.228c0-0.829-0.671-1.5-1.5-1.5s-1.5,0.671-1.5,1.5v2.305h-2.92c-0.829,0-1.5,0.671-1.5,1.5s0.671,1.5,1.5,1.5h2.92v3.509h-2.92
		c-0.829,0-1.5,0.671-1.5,1.5s0.671,1.5,1.5,1.5h2.92v3.507h-2.92c-0.829,0-1.5,0.671-1.5,1.5s0.671,1.5,1.5,1.5h2.92v11.736h-5.773
		c-0.829,0-1.5,0.671-1.5,1.5v9.926c-0.701,0.126-1.234,0.736-1.234,1.473v41.718c0,0.829,0.671,1.5,1.5,1.5h17.014
		c0.829,0,1.5-0.671,1.5-1.5V51.184C76.601,50.447,76.068,49.837,75.367,49.711z M60.821,41.285h11.546v8.399H60.821V41.285z
		 M73.601,91.402H59.587V52.684h14.014V91.402z"/>
</g>
</svg>
