<?xml version="1.0" encoding="iso-8859-1"?>
<!-- Generator: Adobe Illustrator 21.0.0, SVG Export Plug-In . SVG Version: 6.00 Build 0)  -->
<svg version="1.1" id="Layer_1" xmlns="http://www.w3.org/2000/svg" xmlns:xlink="http://www.w3.org/1999/xlink" x="0px" y="0px"
	 viewBox="0 0 100.353 100.353" style="enable-background:new 0 0 100.353 100.353;" xml:space="preserve">
<g>
	<path d="M80.335,38.338c0-17.278-14.057-31.334-31.334-31.334S17.667,21.06,17.667,38.338c0,15.548,11.384,28.482,26.253,30.918
		v20.74h-9.876c-0.829,0-1.5,0.671-1.5,1.5s0.671,1.5,1.5,1.5H45.42h7.163h11.379c0.829,0,1.5-0.671,1.5-1.5s-0.671-1.5-1.5-1.5
		h-9.879v-20.74C68.951,66.819,80.335,53.886,80.335,38.338z M20.666,38.338c0-15.624,12.71-28.334,28.334-28.334
		s28.334,12.71,28.334,28.334c0,15.625-12.711,28.336-28.334,28.336S20.666,53.962,20.666,38.338z M51.082,69.674v20.322h-4.163
		V69.674H51.082z"/>
	<path d="M73.587,38.338c0-13.558-11.029-24.588-24.586-24.588S24.415,24.78,24.415,38.338c0,13.559,11.029,24.59,24.586,24.59
		C62.557,62.927,73.587,51.897,73.587,38.338z M27.414,38.338c0-11.904,9.684-21.588,21.586-21.588
		c11.903,0,21.586,9.684,21.586,21.588c0,11.905-9.684,21.59-21.586,21.59C37.098,59.927,27.414,50.242,27.414,38.338z"/>
	<path d="M44.136,25.698c0.586-0.585,0.586-1.535,0-2.121c-0.585-0.586-1.535-0.586-2.121,0l-9.032,9.03
		c-0.586,0.585-0.586,1.535,0,2.121c0.292,0.293,0.677,0.439,1.061,0.439s0.768-0.146,1.061-0.439L44.136,25.698z"/>
	<path d="M50.416,26.095c-0.586-0.586-1.536-0.585-2.122,0L35.266,39.116c-0.586,0.586-0.586,1.536,0,2.122
		c0.293,0.293,0.677,0.439,1.061,0.439s0.768-0.146,1.061-0.439l13.028-13.021C51.001,27.631,51.001,26.681,50.416,26.095z"/>
</g>
</svg>
