<?xml version="1.0" encoding="iso-8859-1"?>
<!-- Generator: Adobe Illustrator 21.0.0, SVG Export Plug-In . SVG Version: 6.00 Build 0)  -->
<svg version="1.1" id="Layer_1" xmlns="http://www.w3.org/2000/svg" xmlns:xlink="http://www.w3.org/1999/xlink" x="0px" y="0px"
	 viewBox="0 0 100.353 100.353" style="enable-background:new 0 0 100.353 100.353;" xml:space="preserve">
<path d="M78.725,91.277c-0.82-0.667-1.694-1.213-2.539-1.741c-1.346-0.841-2.618-1.635-3.325-2.73
	c-0.887-1.38-2.169-5.047-2.793-6.97c0.031-0.03,0.055-0.057,0.086-0.088c1.805-1.766,1.764-3.778,1.455-4.689
	c-0.089-0.264-0.25-0.497-0.464-0.674c0,0-1.106-0.915-2.881-2.384L57.074,7.592c-0.07-0.4-0.299-0.756-0.635-0.984
	c-0.337-0.228-0.75-0.311-1.149-0.227c-1.337,0.279-5.814,1.299-7.262,2.703c-1.144,1.118-2.011,4.379-2.331,5.729
	c-0.048,0.204-0.053,0.415-0.015,0.621l6.982,37.46c0.147,0.789,0.885,1.321,1.684,1.21l3.068-0.432l2.411,11.351
	c-4.933-4.079-10.364-8.568-13.809-11.41c-3.366-2.776-7.694-7.491-11.88-12.05c-6.484-7.064-10.586-11.427-13.082-12.086
	c-2.28-0.605-4.59,1.589-5.759,2.951c-1.61,1.875-4.035,5.739-2.908,8.328c0,0.001,0.001,0.002,0.001,0.003
	c1.377,3.147,11.992,13.635,14.546,16.062c5.178,4.922,14.357,12.334,20.896,16.875l1.592,1.107
	c5.576,3.885,9.981,6.954,15.316,8.589c0.217,0.066,0.426,0.098,0.63,0.098c0.809,0,1.537-0.499,2.337-1.253
	c0.682,1.983,1.727,4.786,2.632,6.194c1.071,1.66,2.691,2.672,4.257,3.65c0.803,0.501,1.561,0.975,2.236,1.523
	c0.278,0.227,0.613,0.336,0.945,0.336c0.436,0,0.868-0.189,1.165-0.554C79.465,92.745,79.368,91.8,78.725,91.277z M60.059,51.68
	c-0.164-0.771-0.892-1.281-1.676-1.174l-3.033,0.427L48.69,15.2c0.448-1.791,1.1-3.603,1.43-3.967
	c0.398-0.386,2.225-1.041,4.271-1.564l10.317,59.39c-0.377-0.312-0.763-0.631-1.16-0.959L60.059,51.68z M65.255,80.409
	c-4.732-1.53-8.889-4.426-14.116-8.067l-1.596-1.11C43.217,66.84,34.003,59.4,29.002,54.647
	c-4.947-4.703-12.998-13.117-13.863-15.088c-0.221-0.515,0.367-2.68,2.282-4.996c1.506-1.821,2.623-2.235,2.869-2.185
	c1.773,0.468,7.243,6.427,11.638,11.214c4.255,4.635,8.654,9.427,12.181,12.336c4.222,3.483,11.424,9.437,17.038,14.08
	c0.005,0.005,0.012,0.009,0.017,0.014c1.792,1.482,3.421,2.83,4.739,3.92c0.015,0.013,0.029,0.024,0.044,0.036
	c1.293,1.07,2.285,1.89,2.825,2.337c-0.034,0.291-0.181,0.767-0.716,1.29c-0.486,0.476-0.934,0.945-1.344,1.375
	C66.236,79.477,65.614,80.129,65.255,80.409z"/>
</svg>
