<?xml version="1.0" encoding="iso-8859-1"?>
<!-- Generator: Adobe Illustrator 21.1.0, SVG Export Plug-In . SVG Version: 6.00 Build 0)  -->
<svg version="1.1" id="Layer_1" xmlns="http://www.w3.org/2000/svg" xmlns:xlink="http://www.w3.org/1999/xlink" x="0px" y="0px"
	 viewBox="0 0 100.353 100.352" style="enable-background:new 0 0 100.353 100.352;" xml:space="preserve">
<g>
	<path d="M65.183,36.607c1.816-2.844,2.806-6.106,2.847-9.492c0.057-4.827-1.769-9.387-5.14-12.84
		c-3.372-3.454-7.887-5.386-12.713-5.442c-4.829-0.044-9.388,1.771-12.839,5.143c-3.451,3.373-5.383,7.887-5.439,12.712
		c-0.045,3.581,0.944,6.995,2.857,9.957c-7.713,4.698-13.101,12.846-14.01,22.284c-0.003,0.028-0.005,0.056-0.006,0.085
		c-0.085,0.908-0.133,1.826-0.133,2.755c0,16.209,13.187,29.396,29.395,29.396c16.209,0,29.396-13.187,29.396-29.396
		C79.396,51.112,73.695,41.762,65.183,36.607z M76.094,57.772c-1.305-0.028-3.111-0.09-4.183-0.126
		c-1.064-0.036-1.909-0.064-2.151-0.064c-8.842,0-18.239-5.185-18.239-14.792l0.005-3.962c0.003-1.296,0.005-2.323,0.001-3.406
		C64.034,36.138,74.237,45.599,76.094,57.772z M34.899,26.724c0.047-4.025,1.658-7.791,4.536-10.603
		c2.835-2.771,6.567-4.29,10.526-4.29c0.061,0,0.122,0,0.182,0.001c4.024,0.046,7.789,1.658,10.601,4.539
		c2.812,2.88,4.335,6.683,4.287,10.708c-0.036,2.898-0.903,5.691-2.497,8.107c-3.804-1.801-8.051-2.812-12.532-2.812
		c-4.504,0-8.773,1.021-12.593,2.84C35.733,32.703,34.861,29.789,34.899,26.724z M48.521,35.418v5.268
		c0,9.786-6.54,16.89-15.55,16.89c-0.452,0-1.3,0.029-2.336,0.066c-1.607,0.057-4.848,0.171-6.723,0.108
		C25.78,45.573,36.001,36.113,48.521,35.418z M50.001,88.164c-14.554,0-26.395-11.841-26.395-26.396
		c0-0.348,0.013-0.694,0.026-1.039c0.513,0.024,1.077,0.038,1.721,0.038c1.528,0,3.386-0.058,5.387-0.128
		c0.99-0.035,1.799-0.064,2.23-0.064c7.679,0,13.969-4.52,16.848-11.331c3.19,7.403,11.766,11.337,19.941,11.337
		c0.23,0,1.036,0.028,2.05,0.062c2.083,0.071,3.558,0.116,4.562,0.133c0.012,0.33,0.025,0.659,0.025,0.992
		C76.396,76.323,64.556,88.164,50.001,88.164z"/>
	<path d="M60.723,73.741c-0.791-0.253-1.634,0.182-1.887,0.971c-1.229,3.837-4.772,6.414-8.816,6.414
		c-4.044,0-7.584-2.58-8.809-6.421c-0.252-0.789-1.095-1.227-1.885-0.973c-0.79,0.251-1.225,1.095-0.974,1.885
		c1.623,5.089,6.312,8.509,11.667,8.509c5.352,0,10.043-3.415,11.673-8.498C61.946,74.839,61.512,73.994,60.723,73.741z"/>
</g>
</svg>
