<?xml version="1.0" encoding="iso-8859-1"?>
<!-- Generator: Adobe Illustrator 21.0.0, SVG Export Plug-In . SVG Version: 6.00 Build 0)  -->
<svg version="1.1" id="Layer_1" xmlns="http://www.w3.org/2000/svg" xmlns:xlink="http://www.w3.org/1999/xlink" x="0px" y="0px"
	 viewBox="0 0 100.355 100.352" style="enable-background:new 0 0 100.355 100.352;" xml:space="preserve">
<path d="M83.286,72.646c-3.01-4.414-8.265-6.398-13.211-5.484L59.329,51.394c5.795-5.25,13.537-38.506,14.416-42.353
	c0.161-0.705-0.203-1.424-0.866-1.711c-0.661-0.286-1.437-0.062-1.84,0.539l-20.566,30.53L29.741,7.979
	c-0.407-0.598-1.182-0.819-1.844-0.528c-0.661,0.291-1.021,1.012-0.856,1.715c0.901,3.841,8.828,37.05,14.644,42.273L31.032,67.263
	c-1.58-0.286-3.214-0.289-4.839,0.027c-3.429,0.668-6.392,2.633-8.342,5.53c-1.957,2.897-2.667,6.381-1.999,9.81
	c0.668,3.432,2.635,6.398,5.537,8.351c2.185,1.473,4.703,2.238,7.281,2.238c0.84,0,1.687-0.082,2.529-0.246
	c3.43-0.668,6.394-2.632,8.347-5.531l0,0c2.922-4.341,2.874-9.816,0.349-14.038c1.134-1.889,2.218-4.329,3.357-6.895
	c2.025-4.562,4.313-9.706,7.24-12.462c2.696,3.011,5.143,8.111,7.217,12.444c1.23,2.569,2.401,5.013,3.53,6.854
	c-2.503,4.235-2.524,9.711,0.42,14.036l0.001,0.001c2.532,3.711,6.648,5.71,10.834,5.71c2.536,0,5.099-0.735,7.347-2.268
	c2.89-1.967,4.839-4.942,5.49-8.376C85.981,79.017,85.255,75.535,83.286,72.646z M68.864,16.467
	c-3.367,13.274-8.146,29.174-11.236,32.43l-5.335-7.829L68.864,16.467z M37.058,85.767c-1.504,2.233-3.789,3.747-6.432,4.262
	c-2.645,0.518-5.328-0.03-7.56-1.536c-2.238-1.505-3.753-3.791-4.268-6.436c-0.514-2.642,0.033-5.326,1.542-7.56
	c1.503-2.233,3.786-3.748,6.428-4.263c0.649-0.126,1.301-0.189,1.949-0.189c0.749,0,1.485,0.111,2.21,0.276
	c0.23,0.129,0.478,0.204,0.727,0.204c0.024,0,0.047-0.007,0.071-0.009c0.911,0.289,1.788,0.703,2.603,1.252
	C38.936,74.877,40.161,81.156,37.058,85.767z M40.509,65.292c-0.899,2.026-1.763,3.966-2.613,5.551
	c-0.573-0.568-1.2-1.095-1.893-1.562c-0.633-0.427-1.298-0.782-1.98-1.088l10.643-15.809c0.633-0.071,1.216-0.252,1.69-0.406
	c0.345-0.112,0.925-0.301,1.088-0.26c0.254,0.097,0.505,0.221,0.756,0.365C44.951,55.288,42.598,60.585,40.509,65.292z
	 M48.519,48.917c-1.121-0.433-2.213-0.077-3.09,0.208c-0.617,0.2-0.982,0.289-1.252,0.282c-0.067-0.014-0.134-0.018-0.202-0.023
	c-0.072-0.021-0.141-0.045-0.202-0.088c-3.074-2.202-8.218-18.894-11.809-32.727l35.123,51.537c-0.679,0.307-1.344,0.663-1.98,1.097
	c-0.693,0.472-1.319,1.005-1.891,1.578c-0.882-1.579-1.822-3.538-2.802-5.585C57.193,58.465,53.541,50.836,48.519,48.917z
	 M82.384,81.892c-0.501,2.646-2.004,4.938-4.231,6.455c-4.594,3.131-10.88,1.94-14.014-2.654
	c-3.125-4.594-1.933-10.879,2.658-14.011c0.823-0.56,1.701-0.976,2.604-1.264c0.296,0.012,0.595-0.062,0.861-0.23
	c3.916-0.875,8.151,0.639,10.546,4.15C82.325,76.563,82.885,79.246,82.384,81.892z"/>
</svg>
