<?xml version="1.0" encoding="iso-8859-1"?>
<!-- Generator: Adobe Illustrator 21.0.0, SVG Export Plug-In . SVG Version: 6.00 Build 0)  -->
<svg version="1.1" id="Layer_1" xmlns="http://www.w3.org/2000/svg" xmlns:xlink="http://www.w3.org/1999/xlink" x="0px" y="0px"
	 viewBox="0 0 100.353 100.352" style="enable-background:new 0 0 100.353 100.352;" xml:space="preserve">
<path d="M76.043,19.779c-5.812,0-12.543,2.955-14.206,3.972c-2.961,1.803-6.392,4.376-7.398,7.053H40.774v-5.275
	c0-0.829-0.671-1.5-1.5-1.5h-1.499c0.556-0.925,0.882-2.004,0.882-3.16c0-3.395-2.764-6.156-6.162-6.156
	c-3.396,0-6.158,2.762-6.158,6.156c0,1.156,0.326,2.234,0.882,3.16h-1.495c-0.829,0-1.5,0.671-1.5,1.5v13.375
	C12.46,43.617,5.177,53.537,5.177,64.905c0,15.064,12.255,27.32,27.318,27.32c15.067,0,27.325-12.256,27.325-27.32
	c0-10.763-6.929-20.169-19.047-25.91v-5.191h13.632c0.822,2.387,3.565,4.943,8.196,7.622c2.444,1.414,8.23,3.405,13.441,3.405
	c10.937,0,19.503-5.502,19.503-12.526C95.547,25.281,86.98,19.779,76.043,19.779z M37.774,38.778H27.225V27.029h10.549V38.778z
	 M29.338,20.869c0-1.74,1.417-3.156,3.158-3.156c1.743,0,3.162,1.416,3.162,3.156c0,1.742-1.418,3.16-3.162,3.16
	C30.754,24.029,29.338,22.612,29.338,20.869z M56.821,64.905c0,13.41-10.912,24.32-24.325,24.32
	c-13.409,0-24.318-10.91-24.318-24.32c0-10.108,6.565-18.954,17.158-23.204c0.144,0.046,0.293,0.077,0.452,0.077h13.416
	c0.114,0,0.223-0.015,0.33-0.039C50.526,46.966,56.821,55.369,56.821,64.905z M76.043,41.83c-4.77,0-10.13-1.955-11.939-3.001
	c-5.136-2.971-6.965-5.318-6.965-6.525c0-1.049,1.958-3.372,6.262-5.992c1.644-1.006,7.819-3.533,12.643-3.533
	c8.946,0,16.503,4.362,16.503,9.525C92.547,37.468,84.989,41.83,76.043,41.83z"/>
</svg>
